<?xml version="1.0" standalone="no"?>
<!DOCTYPE svg PUBLIC "-//W3C//DTD SVG 20010904//EN"
 "http://www.w3.org/TR/2001/REC-SVG-20010904/DTD/svg10.dtd">
<svg version="1.0" xmlns="http://www.w3.org/2000/svg"
 width="736.000000pt" height="736.000000pt" viewBox="0 0 736.000000 736.000000"
 preserveAspectRatio="xMidYMid meet">

<g transform="translate(0.000000,736.000000) scale(0.100000,-0.100000)"
fill="#000000" stroke="none">
<path d="M0 3680 l0 -3680 3680 0 3680 0 0 3680 0 3680 -3680 0 -3680 0 0
-3680z m4105 2116 c584 -121 1060 -512 1292 -1059 44 -105 44 -178 -2 -253
-71 -117 -249 -140 -348 -46 -37 35 -48 57 -85 169 -83 246 -234 468 -431 634
-265 222 -544 326 -911 338 l-184 6 3 48 c2 36 -1 47 -12 47 -11 0 -16 14 -19
46 -3 42 -2 45 19 41 19 -3 21 -1 12 15 -5 10 -6 17 -2 16 4 -1 40 3 78 10
117 19 134 20 305 16 125 -3 194 -10 285 -28z m-688 -12 c-3 -3 -12 -4 -19 -1
-8 3 -5 6 6 6 11 1 17 -2 13 -5z m-4 -211 c-7 -2 -19 -2 -25 0 -7 3 -2 5 12 5
14 0 19 -2 13 -5z m-1146 -1777 c60 -31 99 -89 127 -191 10 -33 44 -114 76
-180 198 -409 553 -681 1020 -782 67 -14 129 -18 300 -18 118 0 204 -2 190 -3
-14 -2 -30 -8 -36 -13 -5 -4 -21 -6 -35 -3 -21 4 -22 3 -4 -5 l20 -10 -20 -1
c-14 -1 -10 -5 15 -15 19 -7 29 -14 22 -14 -10 -1 -13 -15 -10 -53 2 -42 7
-54 23 -60 17 -5 15 -6 -7 -7 -16 -1 -28 -5 -28 -10 0 -5 21 -7 48 -5 44 3 45
3 12 -6 -142 -36 -212 -43 -395 -43 -212 -1 -335 17 -515 75 -482 154 -888
518 -1091 977 -57 128 -63 202 -22 276 61 109 199 149 310 91z m1680 -1212
c-3 -3 -12 -4 -19 -1 -8 3 -5 6 6 6 11 1 17 -2 13 -5z m-1497 -989 l0 -155 85
0 c84 0 85 0 85 -25 l0 -25 -110 0 -110 0 0 180 0 180 25 0 25 0 0 -155z m470
133 c61 -42 75 -71 75 -157 0 -69 -3 -81 -28 -114 -15 -20 -41 -44 -57 -52
-64 -33 -176 -7 -213 48 -29 45 -41 112 -28 164 24 93 73 132 167 133 37 0 60
-6 84 -22z m359 -153 c39 -96 71 -177 71 -180 0 -4 -12 -5 -26 -3 -22 2 -30
12 -47 56 l-20 52 -72 0 -72 0 -20 -52 c-15 -39 -26 -54 -42 -56 -12 -2 -21 2
-21 10 0 11 42 124 121 326 5 14 17 22 32 22 22 0 31 -17 96 -175z m329 151
c44 -23 72 -84 72 -156 0 -72 -28 -133 -72 -156 -22 -12 -64 -19 -125 -22
l-93 -4 0 182 0 182 93 -4 c61 -3 103 -10 125 -22z m192 -157 l0 -180 -22 3
c-23 3 -23 5 -26 168 -1 90 0 170 2 177 3 7 15 13 26 13 19 0 20 -6 20 -181z
m216 50 l89 -132 5 129 c5 124 6 129 28 132 l22 3 0 -180 0 -181 -24 0 c-19 0
-40 25 -112 134 l-89 134 -5 -131 c-5 -128 -6 -132 -27 -135 l-23 -3 0 180 0
181 23 0 c18 0 41 -27 113 -131z m471 111 c32 -19 67 -72 56 -84 -14 -14 -41
-4 -51 19 -19 42 -99 59 -151 32 -58 -29 -82 -137 -46 -206 43 -83 215 -76
215 9 0 30 -1 30 -55 30 -48 0 -55 2 -55 20 0 18 7 20 75 20 l76 0 -3 -67 -3
-68 -45 -23 c-36 -19 -57 -23 -107 -20 -70 4 -103 23 -141 79 -21 29 -23 44
-20 106 4 80 20 111 78 151 43 29 131 31 177 2z m193 -315 c0 -20 -5 -25 -25
-25 -20 0 -25 5 -25 25 0 20 5 25 25 25 20 0 25 -5 25 -25z m135 0 c0 -31 -49
-28 -53 3 -3 20 0 23 25 20 20 -2 28 -8 28 -23z m135 0 c0 -20 -5 -25 -25 -25
-20 0 -25 5 -25 25 0 20 5 25 25 25 20 0 25 -5 25 -25z"/>
<path d="M2768 1693 c-30 -19 -45 -47 -54 -102 -13 -81 43 -161 112 -161 79 0
124 51 124 140 0 28 -7 64 -15 80 -29 56 -112 77 -167 43z"/>
<path d="M3175 1679 c-11 -32 -45 -132 -45 -136 0 -1 25 -3 55 -3 30 0 55 2
55 4 0 6 -52 141 -56 145 -2 2 -6 -2 -9 -10z"/>
<path d="M3440 1570 l0 -130 61 0 c71 0 93 10 115 52 24 47 16 149 -16 183
-21 22 -32 25 -92 25 l-68 0 0 -130z"/>
</g>
</svg>
